<svg xmlns="http://www.w3.org/2000/svg" xmlns:xlink="http://www.w3.org/1999/xlink" version="1.1" width="256" height="256" viewBox="0 0 256 256" xml:space="preserve">
<g style="stroke: none; stroke-width: 0; stroke-dasharray: none; stroke-linecap: butt; stroke-linejoin: miter; stroke-miterlimit: 10; fill: none; fill-rule: nonzero; opacity: 1;" transform="translate(1.4065934065934016 1.4065934065934016) scale(2.81 2.81)">
	<polyline points="6.95,13.04 1,13.04 1,67.02 34.61,66.9 55.39,66.9 89,67.02 89,13.04 83.05,13.04 " style="stroke: none; stroke-width: 1; stroke-dasharray: none; stroke-linecap: butt; stroke-linejoin: miter; stroke-miterlimit: 10; fill: rgb(185,185,185); fill-rule: nonzero; opacity: 1;" transform="  matrix(1 0 0 1 0 0) "/>
	<path d="M 55.188 5.835 c -5.174 0 -8.865 1.576 -10.188 5.341 c -1.324 -3.765 -5.014 -5.341 -10.188 -5.341 H 6.951 v 54.498 h 27.861 c 5.174 0 8.281 3.981 10.188 6.568 c 1.907 -2.588 5.014 -6.568 10.188 -6.568 h 27.861 V 5.835 H 55.188 z" style="stroke: none; stroke-width: 1; stroke-dasharray: none; stroke-linecap: butt; stroke-linejoin: miter; stroke-miterlimit: 10; fill: rgb(239,237,239); fill-rule: nonzero; opacity: 1;" transform=" matrix(1 0 0 1 0 0) " stroke-linecap="round"/>
	<path d="M 26.587 83.251 c 16.189 1.204 32.379 1.218 48.568 0.042 c 1.721 -0.125 3.051 -1.569 3.051 -3.295 v 0 c 0 -1.725 -1.33 -3.17 -3.051 -3.295 c -16.189 -1.176 -32.379 -1.162 -48.568 0.042 c -1.399 0.104 -2.48 1.278 -2.48 2.681 v 1.144 C 24.106 81.973 25.188 83.147 26.587 83.251 z" style="stroke: none; stroke-width: 1; stroke-dasharray: none; stroke-linecap: butt; stroke-linejoin: miter; stroke-miterlimit: 10; fill: rgb(72,126,167); fill-rule: nonzero; opacity: 1;" transform=" matrix(1 0 0 1 0 0) " stroke-linecap="round"/>
	<polyline points="24.11,81.12 18.83,84.17 11.2,80 18.83,75.83 24.11,78.88 " style="stroke: none; stroke-width: 1; stroke-dasharray: none; stroke-linecap: butt; stroke-linejoin: miter; stroke-miterlimit: 10; fill: rgb(239,237,239); fill-rule: nonzero; opacity: 1;" transform="  matrix(1 0 0 1 0 0) "/>
	<path d="M 89 68.018 c -0.001 0 -0.002 0 -0.004 0 l -33.609 -0.116 H 34.609 L 1.003 68.018 c -0.285 0.037 -0.521 -0.104 -0.709 -0.292 S 0 67.283 0 67.018 V 13.041 c 0 -0.552 0.448 -1 1 -1 h 5.951 c 0.552 0 1 0.448 1 1 s -0.448 1 -1 1 H 2 v 51.973 l 32.606 -0.112 h 20.785 L 88 66.014 V 14.041 h -4.951 c -0.553 0 -1 -0.448 -1 -1 s 0.447 -1 1 -1 H 89 c 0.553 0 1 0.448 1 1 v 53.977 c 0 0.266 -0.105 0.521 -0.294 0.708 C 89.519 67.913 89.265 68.018 89 68.018 z" style="stroke: none; stroke-width: 1; stroke-dasharray: none; stroke-linecap: butt; stroke-linejoin: miter; stroke-miterlimit: 10; fill: rgb(63,63,63); fill-rule: nonzero; opacity: 1;" transform=" matrix(1 0 0 1 0 0) " stroke-linecap="round"/>
	<path d="M 45.001 67.901 c -0.307 0 -0.61 -0.141 -0.806 -0.407 c -1.586 -2.153 -4.54 -6.161 -9.383 -6.161 H 6.951 c -0.552 0 -1 -0.447 -1 -1 V 5.835 c 0 -0.552 0.448 -1 1 -1 h 27.861 c 5.984 0 9.73 2.022 11.132 6.01 c 0.184 0.521 -0.091 1.092 -0.612 1.275 c -0.521 0.182 -1.092 -0.091 -1.275 -0.612 c -1.09 -3.101 -4.201 -4.673 -9.245 -4.673 H 7.951 v 52.498 h 26.861 c 5.854 0 9.325 4.711 10.994 6.976 c 0.328 0.444 0.233 1.07 -0.212 1.397 C 45.415 67.838 45.207 67.901 45.001 67.901 z" style="stroke: none; stroke-width: 1; stroke-dasharray: none; stroke-linecap: butt; stroke-linejoin: miter; stroke-miterlimit: 10; fill: rgb(63,63,63); fill-rule: nonzero; opacity: 1;" transform=" matrix(1 0 0 1 0 0) " stroke-linecap="round"/>
	<path d="M 44.999 67.901 c -0.206 0 -0.414 -0.063 -0.592 -0.195 c -0.445 -0.327 -0.54 -0.953 -0.212 -1.398 c 1.669 -2.264 5.141 -6.975 10.994 -6.975 h 26.86 V 6.835 h -26.86 c -4.96 0 -8.051 1.52 -9.188 4.518 v 44.463 c 0 0.553 -0.448 1 -1 1 s -1 -0.447 -1 -1 v -44.64 c 0 -0.113 0.019 -0.225 0.057 -0.332 c 1.401 -3.988 5.146 -6.01 11.132 -6.01 h 27.86 c 0.553 0 1 0.448 1 1 v 54.498 c 0 0.553 -0.447 1 -1 1 h -27.86 c -4.843 0 -7.797 4.008 -9.383 6.162 C 45.609 67.761 45.306 67.901 44.999 67.901 z" style="stroke: none; stroke-width: 1; stroke-dasharray: none; stroke-linecap: butt; stroke-linejoin: miter; stroke-miterlimit: 10; fill: rgb(63,63,63); fill-rule: nonzero; opacity: 1;" transform=" matrix(1 0 0 1 0 0) " stroke-linecap="round"/>
	<path d="M 35.87 20.351 c -0.251 0 -0.503 -0.094 -0.697 -0.283 c -2.684 -2.609 -6.432 -2.599 -9.44 -2.6 l -12.964 0 c -0.552 0 -1 -0.448 -1 -1 s 0.448 -1 1 -1 l 12.961 0 c 3.195 -0.001 7.569 -0.011 10.837 3.166 c 0.396 0.385 0.405 1.018 0.02 1.414 C 36.391 20.25 36.13 20.351 35.87 20.351 z" style="stroke: none; stroke-width: 1; stroke-dasharray: none; stroke-linecap: butt; stroke-linejoin: miter; stroke-miterlimit: 10; fill: rgb(63,63,63); fill-rule: nonzero; opacity: 1;" transform=" matrix(1 0 0 1 0 0) " stroke-linecap="round"/>
	<path d="M 35.87 30.691 c -0.251 0 -0.503 -0.094 -0.697 -0.283 c -2.684 -2.609 -6.432 -2.596 -9.44 -2.6 l -12.964 0 c -0.552 0 -1 -0.448 -1 -1 s 0.448 -1 1 -1 l 12.961 0 c 3.195 0 7.569 -0.011 10.837 3.166 c 0.396 0.385 0.405 1.018 0.02 1.414 C 36.391 30.59 36.13 30.691 35.87 30.691 z" style="stroke: none; stroke-width: 1; stroke-dasharray: none; stroke-linecap: butt; stroke-linejoin: miter; stroke-miterlimit: 10; fill: rgb(63,63,63); fill-rule: nonzero; opacity: 1;" transform=" matrix(1 0 0 1 0 0) " stroke-linecap="round"/>
	<path d="M 35.87 41.032 c -0.251 0 -0.503 -0.094 -0.697 -0.283 c -2.684 -2.609 -6.432 -2.592 -9.44 -2.6 l -12.964 0 c -0.552 0 -1 -0.448 -1 -1 s 0.448 -1 1 -1 l 12.961 0 c 3.195 0 7.569 -0.011 10.837 3.166 c 0.396 0.385 0.405 1.018 0.02 1.414 C 36.391 40.931 36.13 41.032 35.87 41.032 z" style="stroke: none; stroke-width: 1; stroke-dasharray: none; stroke-linecap: butt; stroke-linejoin: miter; stroke-miterlimit: 10; fill: rgb(63,63,63); fill-rule: nonzero; opacity: 1;" transform=" matrix(1 0 0 1 0 0) " stroke-linecap="round"/>
	<path d="M 35.87 51.372 c -0.251 0 -0.503 -0.094 -0.697 -0.283 c -2.683 -2.608 -6.427 -2.628 -9.437 -2.599 H 12.769 c -0.552 0 -1 -0.447 -1 -1 s 0.448 -1 1 -1 h 12.964 c 3.191 -0.021 7.568 -0.012 10.834 3.165 c 0.396 0.385 0.405 1.018 0.02 1.414 C 36.391 51.271 36.13 51.372 35.87 51.372 z" style="stroke: none; stroke-width: 1; stroke-dasharray: none; stroke-linecap: butt; stroke-linejoin: miter; stroke-miterlimit: 10; fill: rgb(63,63,63); fill-rule: nonzero; opacity: 1;" transform=" matrix(1 0 0 1 0 0) " stroke-linecap="round"/>
	<path d="M 54.13 20.351 c -0.261 0 -0.521 -0.101 -0.717 -0.303 c -0.385 -0.396 -0.376 -1.029 0.02 -1.414 c 3.269 -3.176 7.636 -3.161 10.838 -3.166 l 12.961 0 c 0.553 0 1 0.448 1 1 s -0.447 1 -1 1 l -12.964 0 c -2.985 0.002 -6.756 -0.01 -9.44 2.6 C 54.633 20.257 54.381 20.351 54.13 20.351 z" style="stroke: none; stroke-width: 1; stroke-dasharray: none; stroke-linecap: butt; stroke-linejoin: miter; stroke-miterlimit: 10; fill: rgb(63,63,63); fill-rule: nonzero; opacity: 1;" transform=" matrix(1 0 0 1 0 0) " stroke-linecap="round"/>
	<path d="M 54.13 30.691 c -0.261 0 -0.521 -0.101 -0.717 -0.303 c -0.385 -0.396 -0.376 -1.029 0.02 -1.414 c 3.269 -3.176 7.636 -3.158 10.838 -3.166 l 12.961 0 c 0.553 0 1 0.448 1 1 s -0.447 1 -1 1 l -12.964 0 c -2.985 0.005 -6.756 -0.01 -9.44 2.6 C 54.633 30.597 54.381 30.691 54.13 30.691 z" style="stroke: none; stroke-width: 1; stroke-dasharray: none; stroke-linecap: butt; stroke-linejoin: miter; stroke-miterlimit: 10; fill: rgb(63,63,63); fill-rule: nonzero; opacity: 1;" transform=" matrix(1 0 0 1 0 0) " stroke-linecap="round"/>
	<path d="M 76.606 41.41 c -0.726 -2.029 -3.163 -3.22 -5.873 -2.086 c -1.179 -2.691 -3.764 -3.511 -5.69 -2.544 c -2.048 1.029 -2.646 4.24 -1.741 7.36 c 0.459 1.581 1.998 4.474 3.145 5.889 c 1.807 -0.233 4.917 -1.263 6.34 -2.091 C 75.596 46.304 77.379 43.568 76.606 41.41 z" style="stroke: none; stroke-width: 1; stroke-dasharray: none; stroke-linecap: butt; stroke-linejoin: miter; stroke-miterlimit: 10; fill: rgb(254,147,211); fill-rule: nonzero; opacity: 1;" transform=" matrix(1 0 0 1 0 0) " stroke-linecap="round"/>
	<path d="M 66.447 51.029 c -0.299 0 -0.586 -0.135 -0.776 -0.37 c -1.216 -1.499 -2.833 -4.531 -3.329 -6.241 c -1.104 -3.803 -0.178 -7.311 2.252 -8.532 c 1.169 -0.586 2.505 -0.659 3.762 -0.205 c 1.172 0.422 2.166 1.267 2.867 2.419 c 1.301 -0.351 2.604 -0.275 3.743 0.227 c 1.225 0.54 2.142 1.515 2.582 2.745 c 0 0 0 0 0 0 c 0.917 2.561 -0.835 5.739 -4.258 7.729 c -1.534 0.894 -4.798 1.972 -6.715 2.22 C 66.532 51.026 66.489 51.029 66.447 51.029 z M 66.698 37.389 c -0.418 0 -0.829 0.095 -1.206 0.285 c -1.506 0.756 -2.034 3.416 -1.23 6.187 c 0.378 1.302 1.614 3.676 2.619 5.084 c 1.701 -0.327 4.234 -1.192 5.403 -1.872 c 2.495 -1.451 3.948 -3.741 3.381 -5.327 c -0.254 -0.708 -0.789 -1.272 -1.507 -1.589 c -0.887 -0.391 -1.967 -0.36 -3.039 0.088 c -0.502 0.21 -1.083 -0.021 -1.302 -0.521 c -0.467 -1.065 -1.227 -1.833 -2.14 -2.162 C 67.354 37.446 67.024 37.389 66.698 37.389 z" style="stroke: none; stroke-width: 1; stroke-dasharray: none; stroke-linecap: butt; stroke-linejoin: miter; stroke-miterlimit: 10; fill: rgb(63,63,63); fill-rule: nonzero; opacity: 1;" transform=" matrix(1 0 0 1 0 0) " stroke-linecap="round"/>
	<path d="M 51.157 85.16 c -8.236 0 -16.468 -0.304 -24.645 -0.912 c -1.91 -0.142 -3.406 -1.757 -3.406 -3.678 v -1.144 c 0 -1.921 1.496 -3.536 3.406 -3.678 c 16.158 -1.203 32.549 -1.216 48.714 -0.042 c 2.231 0.162 3.979 2.047 3.979 4.292 c 0 2.244 -1.747 4.129 -3.979 4.291 C 67.241 84.87 59.197 85.16 51.157 85.16 z M 51.157 76.837 c -8.186 0 -16.369 0.302 -24.497 0.906 c -0.872 0.064 -1.554 0.804 -1.554 1.684 v 1.144 c 0 0.88 0.683 1.619 1.554 1.684 h 0 c 16.062 1.194 32.354 1.208 48.421 0.042 c 1.19 -0.087 2.123 -1.096 2.123 -2.297 c 0 -1.202 -0.933 -2.211 -2.123 -2.298 C 67.145 77.125 59.149 76.837 51.157 76.837 z" style="stroke: none; stroke-width: 1; stroke-dasharray: none; stroke-linecap: butt; stroke-linejoin: miter; stroke-miterlimit: 10; fill: rgb(63,63,63); fill-rule: nonzero; opacity: 1;" transform=" matrix(1 0 0 1 0 0) " stroke-linecap="round"/>
	<path d="M 18.833 85.165 c -0.165 0 -0.33 -0.041 -0.479 -0.122 l -7.633 -4.166 C 10.4 80.701 10.2 80.365 10.2 79.999 s 0.2 -0.702 0.521 -0.878 l 7.633 -4.167 c 0.307 -0.166 0.677 -0.161 0.979 0.012 l 5.273 3.048 c 0.478 0.276 0.642 0.889 0.365 1.366 c -0.277 0.479 -0.889 0.642 -1.366 0.366 l -4.787 -2.768 l -5.532 3.021 l 5.532 3.02 l 4.787 -2.768 c 0.478 -0.276 1.089 -0.113 1.366 0.366 c 0.276 0.478 0.113 1.09 -0.365 1.366 l -5.273 3.048 C 19.179 85.12 19.006 85.165 18.833 85.165 z" style="stroke: none; stroke-width: 1; stroke-dasharray: none; stroke-linecap: butt; stroke-linejoin: miter; stroke-miterlimit: 10; fill: rgb(63,63,63); fill-rule: nonzero; opacity: 1;" transform=" matrix(1 0 0 1 0 0) " stroke-linecap="round"/>
	<path d="M 36.156 84.824 c -0.552 0 -1 -0.447 -1 -1 v -7.651 c 0 -0.553 0.448 -1 1 -1 s 1 0.447 1 1 v 7.651 C 37.156 84.377 36.708 84.824 36.156 84.824 z" style="stroke: none; stroke-width: 1; stroke-dasharray: none; stroke-linecap: butt; stroke-linejoin: miter; stroke-miterlimit: 10; fill: rgb(63,63,63); fill-rule: nonzero; opacity: 1;" transform=" matrix(1 0 0 1 0 0) " stroke-linecap="round"/>
	<path d="M 72.735 84.46 c -0.553 0 -1 -0.447 -1 -1 v -6.923 c 0 -0.553 0.447 -1 1 -1 s 1 0.447 1 1 v 6.923 C 73.735 84.013 73.288 84.46 72.735 84.46 z" style="stroke: none; stroke-width: 1; stroke-dasharray: none; stroke-linecap: butt; stroke-linejoin: miter; stroke-miterlimit: 10; fill: rgb(63,63,63); fill-rule: nonzero; opacity: 1;" transform=" matrix(1 0 0 1 0 0) " stroke-linecap="round"/>
	<path d="M 17.653 80.999 H 11.2 c -0.552 0 -1 -0.447 -1 -1 s 0.448 -1 1 -1 h 6.453 c 0.552 0 1 0.447 1 1 S 18.206 80.999 17.653 80.999 z" style="stroke: none; stroke-width: 1; stroke-dasharray: none; stroke-linecap: butt; stroke-linejoin: miter; stroke-miterlimit: 10; fill: rgb(63,63,63); fill-rule: nonzero; opacity: 1;" transform=" matrix(1 0 0 1 0 0) " stroke-linecap="round"/>
</g>
</svg>