<svg xmlns="http://www.w3.org/2000/svg" xmlns:xlink="http://www.w3.org/1999/xlink" version="1.1" width="256" height="256" viewBox="0 0 256 256" xml:space="preserve">
<g style="stroke: none; stroke-width: 0; stroke-dasharray: none; stroke-linecap: butt; stroke-linejoin: miter; stroke-miterlimit: 10; fill: none; fill-rule: nonzero; opacity: 1;" transform="translate(1.4065934065934016 1.4065934065934016) scale(2.81 2.81)">
	<path d="M 45.084 55.79 c 7.291 0 13.223 -5.932 13.223 -13.223 c 0 -7.291 -5.932 -13.223 -13.223 -13.223 s -13.223 5.932 -13.223 13.223 C 31.861 49.858 37.793 55.79 45.084 55.79 z M 45.084 31.344 c 6.188 0 11.223 5.035 11.223 11.223 S 51.272 53.79 45.084 53.79 c -6.188 0 -11.223 -5.035 -11.223 -11.223 S 38.896 31.344 45.084 31.344 z" style="stroke: none; stroke-width: 1; stroke-dasharray: none; stroke-linecap: butt; stroke-linejoin: miter; stroke-miterlimit: 10; fill: rgb(0,0,0); fill-rule: nonzero; opacity: 1;" transform=" matrix(1 0 0 1 0 0) " stroke-linecap="round"/>
	<path d="M 38.222 43.567 c 0.028 0.097 0.042 0.196 0.078 0.291 c 0.763 2.037 3.04 3.074 5.078 2.308 c 1.169 -0.438 2.042 -1.379 2.375 -2.52 l 0.56 -1.533 c 0.174 -0.593 0.604 -1.057 1.179 -1.273 c 0.485 -0.182 1.014 -0.164 1.487 0.051 c 0.473 0.215 0.833 0.601 1.016 1.088 c 0.183 0.486 0.165 1.014 -0.05 1.487 s -0.602 0.833 -1.087 1.016 c -0.518 0.194 -0.779 0.771 -0.586 1.288 c 0.15 0.402 0.532 0.649 0.937 0.649 c 0.117 0 0.235 -0.021 0.351 -0.063 c 0.987 -0.37 1.771 -1.102 2.206 -2.061 c 0.108 -0.236 0.19 -0.48 0.249 -0.727 h 0.748 c 0.553 0 1 -0.448 1 -1 s -0.447 -1 -1 -1 h -0.816 c -0.028 -0.097 -0.042 -0.195 -0.078 -0.291 c -0.37 -0.987 -1.103 -1.77 -2.062 -2.206 c -0.959 -0.437 -2.033 -0.472 -3.017 -0.103 c -1.17 0.438 -2.043 1.379 -2.375 2.52 l -0.559 1.533 c -0.174 0.593 -0.604 1.058 -1.179 1.273 c -1.003 0.376 -2.127 -0.133 -2.503 -1.138 c -0.183 -0.487 -0.165 -1.015 0.05 -1.488 c 0.215 -0.473 0.601 -0.833 1.087 -1.016 c 0.517 -0.194 0.779 -0.771 0.585 -1.288 c -0.194 -0.517 -0.771 -0.776 -1.288 -0.585 c -0.987 0.37 -1.77 1.102 -2.206 2.061 c -0.107 0.236 -0.189 0.48 -0.248 0.727 h -0.748 c -0.552 0 -1 0.448 -1 1 s 0.448 1 1 1 H 38.222 z" style="stroke: none; stroke-width: 1; stroke-dasharray: none; stroke-linecap: butt; stroke-linejoin: miter; stroke-miterlimit: 10; fill: rgb(0,0,0); fill-rule: nonzero; opacity: 1;" transform=" matrix(1 0 0 1 0 0) " stroke-linecap="round"/>
	<path d="M 32.861 26.569 c 0.552 0 1 -0.448 1 -1 V 13.057 c 1.76 -0.388 3.148 -1.776 3.536 -3.536 h 15.373 c 0.388 1.76 1.776 3.148 3.536 3.536 v 12.512 c 0 0.552 0.447 1 1 1 s 1 -0.448 1 -1 V 12.165 c 0 -0.552 -0.447 -1 -1 -1 c -1.458 0 -2.645 -1.187 -2.645 -2.645 c 0 -0.552 -0.447 -1 -1 -1 H 36.506 c -0.552 0 -1 0.448 -1 1 c 0 1.458 -1.187 2.645 -2.645 2.645 c -0.552 0 -1 0.448 -1 1 v 13.404 C 31.861 26.121 32.309 26.569 32.861 26.569 z" style="stroke: none; stroke-width: 1; stroke-dasharray: none; stroke-linecap: butt; stroke-linejoin: miter; stroke-miterlimit: 10; fill: rgb(0,0,0); fill-rule: nonzero; opacity: 1;" transform=" matrix(1 0 0 1 0 0) " stroke-linecap="round"/>
	<path d="M 88.922 37.607 c 0 -0.136 -0.036 -0.263 -0.087 -0.384 c -0.011 -0.027 -0.021 -0.052 -0.035 -0.078 c -0.06 -0.114 -0.138 -0.217 -0.237 -0.301 c -0.005 -0.004 -0.006 -0.01 -0.011 -0.014 l -7.403 -5.997 l 4.903 -16.964 c 0.073 -0.255 0.043 -0.529 -0.085 -0.761 c -0.129 -0.232 -0.344 -0.404 -0.599 -0.478 L 64.802 6.688 V 1 c 0 -0.552 -0.447 -1 -1 -1 H 26.367 c -0.552 0 -1 0.448 -1 1 v 5.639 L 4.631 12.631 c -0.254 0.073 -0.47 0.245 -0.598 0.478 c -0.128 0.232 -0.159 0.506 -0.085 0.761 l 4.903 16.964 l -7.403 5.997 c -0.005 0.004 -0.006 0.01 -0.011 0.014 c -0.1 0.084 -0.178 0.188 -0.238 0.302 c -0.013 0.025 -0.023 0.05 -0.034 0.076 c -0.051 0.121 -0.087 0.248 -0.087 0.385 V 89 c 0 0.002 0.001 0.004 0.001 0.006 c 0.001 0.106 0.017 0.212 0.052 0.316 c 0.004 0.013 0.014 0.022 0.018 0.035 c 0.014 0.037 0.036 0.068 0.054 0.103 c 0.038 0.072 0.08 0.138 0.133 0.198 c 0.028 0.031 0.056 0.059 0.088 0.086 c 0.061 0.053 0.126 0.096 0.198 0.133 c 0.034 0.018 0.065 0.037 0.101 0.051 C 1.836 89.971 1.954 90 2.078 90 h 85.844 c 0.124 0 0.242 -0.029 0.353 -0.071 c 0.036 -0.014 0.068 -0.034 0.102 -0.052 c 0.071 -0.037 0.136 -0.08 0.197 -0.133 c 0.032 -0.028 0.061 -0.055 0.089 -0.087 c 0.053 -0.059 0.095 -0.125 0.132 -0.196 c 0.019 -0.035 0.04 -0.067 0.055 -0.104 c 0.005 -0.012 0.014 -0.022 0.018 -0.035 c 0.036 -0.104 0.052 -0.211 0.052 -0.316 c 0 -0.002 0.001 -0.004 0.001 -0.006 V 37.607 z M 86.922 39.705 v 47.26 L 57.045 63.91 L 86.922 39.705 z M 86.333 37.607 l -9.325 7.555 l 3.538 -12.242 L 86.333 37.607 z M 83.853 14.275 l -4.808 16.637 c -0.001 0.002 -0.001 0.004 -0.002 0.007 L 74.29 47.365 l -9.488 7.687 V 16.597 l 7.325 2.118 c -0.059 0.877 0.135 1.754 0.57 2.542 c 0.435 0.788 1.073 1.419 1.846 1.838 l -3.474 12.019 c -0.153 0.531 0.152 1.085 0.684 1.238 c 0.093 0.027 0.186 0.04 0.277 0.04 c 0.435 0 0.834 -0.285 0.961 -0.723 l 3.722 -12.877 c 0.153 -0.531 -0.152 -1.085 -0.684 -1.238 c -0.679 -0.196 -1.24 -0.645 -1.581 -1.264 c -0.342 -0.618 -0.421 -1.333 -0.225 -2.011 c 0.073 -0.255 0.043 -0.528 -0.085 -0.761 s -0.344 -0.404 -0.599 -0.478 l -8.738 -2.526 V 8.769 L 83.853 14.275 z M 62.802 2 v 54.672 L 50.268 66.826 c -3.053 2.472 -7.483 2.473 -10.536 0 l -4.535 -3.674 l 0 0 l -7.83 -6.344 V 2 H 62.802 z M 32.955 63.911 L 3.078 86.965 v -47.26 L 32.955 63.911 z M 25.367 8.72 v 5.747 l -8.907 2.574 c -0.53 0.153 -0.836 0.708 -0.683 1.238 c 0.405 1.401 -0.405 2.87 -1.806 3.275 c -0.53 0.153 -0.836 0.708 -0.683 1.238 l 3.722 12.877 c 0.126 0.438 0.526 0.723 0.96 0.723 c 0.092 0 0.186 -0.013 0.278 -0.04 c 0.53 -0.153 0.836 -0.708 0.683 -1.238 l -3.474 -12.021 c 1.583 -0.861 2.531 -2.581 2.416 -4.378 l 7.495 -2.167 v 38.639 l -9.657 -7.823 l -4.753 -16.446 c 0 -0.002 -0.001 -0.003 -0.001 -0.005 L 6.147 14.275 L 25.367 8.72 z M 9.454 32.919 l 3.539 12.244 l -9.326 -7.556 L 9.454 32.919 z M 5.011 88 l 29.542 -22.796 l 3.921 3.177 c 3.783 3.063 9.272 3.063 13.054 0 l 3.92 -3.176 L 84.989 88 H 5.011 z" style="stroke: none; stroke-width: 1; stroke-dasharray: none; stroke-linecap: butt; stroke-linejoin: miter; stroke-miterlimit: 10; fill: rgb(0,0,0); fill-rule: nonzero; opacity: 1;" transform=" matrix(1 0 0 1 0 0) " stroke-linecap="round"/>
</g>
</svg>