<svg xmlns="http://www.w3.org/2000/svg" xmlns:xlink="http://www.w3.org/1999/xlink" version="1.1" width="256" height="256" viewBox="0 0 256 256" xml:space="preserve">
<g style="stroke: none; stroke-width: 0; stroke-dasharray: none; stroke-linecap: butt; stroke-linejoin: miter; stroke-miterlimit: 10; fill: none; fill-rule: nonzero; opacity: 1;" transform="translate(1.4065934065934016 1.4065934065934016) scale(2.81 2.81)">
	<path d="M 70.968 58.855 v 20.549 v 6.578 c 0 2.219 -1.799 4.019 -4.019 4.019 H 6.067 c -2.219 0 -4.019 -1.799 -4.019 -4.019 V 4.019 C 2.048 1.799 3.848 0 6.067 0 h 60.882 c 2.219 0 4.019 1.799 4.019 4.019 v 5.769 v 4.29 V 58.855 z" style="stroke: none; stroke-width: 1; stroke-dasharray: none; stroke-linecap: butt; stroke-linejoin: miter; stroke-miterlimit: 10; fill: rgb(200,239,254); fill-rule: nonzero; opacity: 1;" transform=" matrix(1 0 0 1 0 0) " stroke-linecap="round"/>
	<path d="M 54.604 70.757 l -10.079 -6.827 l 32.857 -48.507 c 0.884 -1.305 2.658 -1.646 3.962 -0.762 l 5.355 3.627 c 1.305 0.884 1.646 2.658 0.762 3.962 L 54.604 70.757 z" style="stroke: none; stroke-width: 1; stroke-dasharray: none; stroke-linecap: butt; stroke-linejoin: miter; stroke-miterlimit: 10; fill: rgb(89,134,203); fill-rule: nonzero; opacity: 1;" transform=" matrix(1 0 0 1 0 0) " stroke-linecap="round"/>
	<path d="M 83.388 28.262 l -10.079 -6.827 l 4.073 -6.013 c 0.884 -1.305 2.658 -1.646 3.962 -0.762 l 5.355 3.627 c 1.305 0.884 1.646 2.658 0.762 3.962 L 83.388 28.262 z" style="stroke: none; stroke-width: 1; stroke-dasharray: none; stroke-linecap: butt; stroke-linejoin: miter; stroke-miterlimit: 10; fill: rgb(98,219,251); fill-rule: nonzero; opacity: 1;" transform=" matrix(1 0 0 1 0 0) " stroke-linecap="round"/>
	<polygon points="54.6,70.76 41.42,79.37 44.52,63.93 " style="stroke: none; stroke-width: 1; stroke-dasharray: none; stroke-linecap: butt; stroke-linejoin: miter; stroke-miterlimit: 10; fill: rgb(98,219,251); fill-rule: nonzero; opacity: 1;" transform="  matrix(1 0 0 1 0 0) "/>
	<path d="M 58.36 31.183 H 13.799 c -0.552 0 -1 -0.448 -1 -1 s 0.448 -1 1 -1 H 58.36 c 0.553 0 1 0.448 1 1 S 58.913 31.183 58.36 31.183 z" style="stroke: none; stroke-width: 1; stroke-dasharray: none; stroke-linecap: butt; stroke-linejoin: miter; stroke-miterlimit: 10; fill: rgb(89,134,203); fill-rule: nonzero; opacity: 1;" transform=" matrix(1 0 0 1 0 0) " stroke-linecap="round"/>
	<path d="M 58.36 17.887 H 13.799 c -0.552 0 -1 -0.448 -1 -1 s 0.448 -1 1 -1 H 58.36 c 0.553 0 1 0.448 1 1 S 58.913 17.887 58.36 17.887 z" style="stroke: none; stroke-width: 1; stroke-dasharray: none; stroke-linecap: butt; stroke-linejoin: miter; stroke-miterlimit: 10; fill: rgb(89,134,203); fill-rule: nonzero; opacity: 1;" transform=" matrix(1 0 0 1 0 0) " stroke-linecap="round"/>
	<path d="M 47.11 44.478 H 13.799 c -0.552 0 -1 -0.448 -1 -1 s 0.448 -1 1 -1 H 47.11 c 0.553 0 1 0.448 1 1 S 47.663 44.478 47.11 44.478 z" style="stroke: none; stroke-width: 1; stroke-dasharray: none; stroke-linecap: butt; stroke-linejoin: miter; stroke-miterlimit: 10; fill: rgb(89,134,203); fill-rule: nonzero; opacity: 1;" transform=" matrix(1 0 0 1 0 0) " stroke-linecap="round"/>
	<path d="M 36.883 57.773 H 13.799 c -0.552 0 -1 -0.447 -1 -1 s 0.448 -1 1 -1 h 23.083 c 0.552 0 1 0.447 1 1 S 37.435 57.773 36.883 57.773 z" style="stroke: none; stroke-width: 1; stroke-dasharray: none; stroke-linecap: butt; stroke-linejoin: miter; stroke-miterlimit: 10; fill: rgb(89,134,203); fill-rule: nonzero; opacity: 1;" transform=" matrix(1 0 0 1 0 0) " stroke-linecap="round"/>
	<path d="M 27.345 84.03 c -0.277 0 -0.548 -0.115 -0.741 -0.329 l -7.944 -8.771 c -0.13 1.15 -0.391 2.288 -0.775 3.37 c -0.107 0.3 -0.306 0.857 -0.817 1.234 c -0.435 0.323 -0.93 0.391 -1.313 0.412 c -2.237 0.144 -4.512 -0.974 -5.792 -2.815 c -0.315 -0.453 -0.203 -1.077 0.251 -1.392 c 0.453 -0.316 1.076 -0.204 1.392 0.251 c 0.891 1.282 2.472 2.047 4.033 1.96 c 0.189 -0.011 0.247 -0.031 0.26 -0.037 h 0 c -0.013 0 0.028 -0.074 0.103 -0.284 c 0.582 -1.637 0.835 -3.419 0.735 -5.153 c -0.024 -0.423 0.221 -0.815 0.612 -0.979 c 0.39 -0.165 0.843 -0.064 1.128 0.251 l 7.877 8.696 c -0.058 -4.356 -0.461 -8.722 -1.206 -13.01 c -0.078 -0.447 0.156 -0.891 0.569 -1.08 c 0.413 -0.19 0.902 -0.075 1.189 0.275 l 9.924 12.094 c 0.351 0.428 0.289 1.058 -0.139 1.408 c -0.426 0.351 -1.057 0.287 -1.407 -0.139 l -7.62 -9.286 c 0.528 4.09 0.757 8.227 0.682 12.342 c -0.008 0.41 -0.265 0.773 -0.649 0.918 C 27.582 84.01 27.462 84.03 27.345 84.03 z" style="stroke: none; stroke-width: 1; stroke-dasharray: none; stroke-linecap: butt; stroke-linejoin: miter; stroke-miterlimit: 10; fill: rgb(89,134,203); fill-rule: nonzero; opacity: 1;" transform=" matrix(1 0 0 1 0 0) " stroke-linecap="round"/>
</g>
</svg>