<svg xmlns="http://www.w3.org/2000/svg" xmlns:xlink="http://www.w3.org/1999/xlink" version="1.1" width="256" height="256" viewBox="0 0 256 256" xml:space="preserve">
<g style="stroke: none; stroke-width: 0; stroke-dasharray: none; stroke-linecap: butt; stroke-linejoin: miter; stroke-miterlimit: 10; fill: none; fill-rule: nonzero; opacity: 1;" transform="translate(1.4065934065934016 1.4065934065934016) scale(2.81 2.81)">
	<path d="M 51.711 51.274 c -0.459 -0.306 -1.081 -0.181 -1.386 0.28 c -1.191 1.793 -3.182 2.864 -5.325 2.864 s -4.134 -1.071 -5.325 -2.864 c -0.305 -0.46 -0.925 -0.586 -1.386 -0.28 c -0.46 0.306 -0.585 0.926 -0.28 1.386 c 1.562 2.353 4.176 3.759 6.991 3.759 s 5.429 -1.405 6.991 -3.759 C 52.297 52.2 52.172 51.58 51.711 51.274 z" style="stroke: none; stroke-width: 1; stroke-dasharray: none; stroke-linecap: butt; stroke-linejoin: miter; stroke-miterlimit: 10; fill: rgb(0,0,0); fill-rule: nonzero; opacity: 1;" transform=" matrix(1 0 0 1 0 0) " stroke-linecap="round"/>
	<path d="M 34.787 42.828 c -0.552 0 -1 0.448 -1 1 v 2.318 c 0 0.553 0.448 1 1 1 s 1 -0.447 1 -1 v -2.318 C 35.787 43.275 35.339 42.828 34.787 42.828 z" style="stroke: none; stroke-width: 1; stroke-dasharray: none; stroke-linecap: butt; stroke-linejoin: miter; stroke-miterlimit: 10; fill: rgb(0,0,0); fill-rule: nonzero; opacity: 1;" transform=" matrix(1 0 0 1 0 0) " stroke-linecap="round"/>
	<path d="M 55.214 42.828 c -0.553 0 -1 0.448 -1 1 v 2.318 c 0 0.553 0.447 1 1 1 s 1 -0.447 1 -1 v -2.318 C 56.214 43.275 55.766 42.828 55.214 42.828 z" style="stroke: none; stroke-width: 1; stroke-dasharray: none; stroke-linecap: butt; stroke-linejoin: miter; stroke-miterlimit: 10; fill: rgb(0,0,0); fill-rule: nonzero; opacity: 1;" transform=" matrix(1 0 0 1 0 0) " stroke-linecap="round"/>
	<path d="M 89.864 29.561 c -0.327 -1.003 -1.178 -1.721 -2.222 -1.873 L 75.334 25.9 l -5.503 -11.154 c -0.468 -0.946 -1.413 -1.533 -2.468 -1.533 c -1.056 0 -2.002 0.588 -2.468 1.534 L 59.391 25.9 l -6.645 0.965 l -4.599 -9.319 C 47.552 16.34 46.347 15.59 45 15.59 c -1.345 0 -2.551 0.75 -3.148 1.957 l -4.599 9.319 L 30.61 25.9 l -5.504 -11.154 c -0.468 -0.946 -1.414 -1.533 -2.468 -1.533 c -1.055 0 -2 0.588 -2.468 1.534 L 14.666 25.9 L 2.358 27.688 c -1.043 0.152 -1.895 0.87 -2.222 1.874 c -0.326 1.003 -0.059 2.084 0.696 2.821 l 8.906 8.681 L 7.636 53.321 c -0.178 1.041 0.242 2.072 1.095 2.691 c 0.482 0.351 1.046 0.528 1.615 0.528 c 0.437 0 0.877 -0.105 1.284 -0.318 l 10.858 -5.709 l 4.5 4.387 l -3.05 17.781 c -0.227 1.326 0.308 2.642 1.395 3.432 c 1.087 0.791 2.503 0.895 3.698 0.269 L 45 67.985 l 15.971 8.397 c 0.518 0.271 1.078 0.405 1.635 0.405 c 0.726 0 1.446 -0.228 2.061 -0.675 c 1.088 -0.79 1.623 -2.104 1.395 -3.432 l -3.05 -17.782 l 4.499 -4.386 l 10.861 5.71 c 0.406 0.213 0.846 0.317 1.282 0.317 c 0.568 0 1.133 -0.178 1.615 -0.528 c 0.853 -0.619 1.272 -1.65 1.094 -2.691 l -2.102 -12.257 l 8.905 -8.681 C 89.922 31.648 90.189 30.567 89.864 29.561 z M 10.701 54.452 c -0.262 0.137 -0.558 0.115 -0.795 -0.057 s -0.349 -0.447 -0.299 -0.736 l 2.162 -12.606 c 0.074 -0.43 -0.068 -0.868 -0.381 -1.173 l -9.16 -8.928 c -0.209 -0.205 -0.281 -0.493 -0.191 -0.771 c 0.091 -0.279 0.318 -0.471 0.607 -0.513 l 12.661 -1.84 c 0.432 -0.063 0.804 -0.335 0.996 -0.725 l 5.661 -11.471 c 0.13 -0.263 0.382 -0.419 0.675 -0.419 c 0.292 0 0.545 0.157 0.674 0.419 l 5.662 11.474 c 0.193 0.389 0.565 0.658 0.997 0.722 l 6.352 0.923 l -2.455 4.974 l -17.855 2.594 c -1.332 0.194 -2.417 1.109 -2.832 2.389 c -0.104 0.32 -0.161 0.646 -0.172 0.97 c -0.035 0.972 0.337 1.923 1.06 2.628 l 6.913 6.739 L 10.701 54.452 z M 61.416 53.663 c -0.348 0.338 -0.505 0.825 -0.422 1.298 l 3.098 18.058 c 0.098 0.57 -0.133 1.137 -0.601 1.477 c -0.468 0.34 -1.077 0.385 -1.591 0.116 l -16.22 -8.529 c -0.208 -0.108 -0.443 -0.166 -0.68 -0.166 c -0.234 0 -0.468 0.057 -0.682 0.168 l -16.215 8.526 c -0.515 0.268 -1.126 0.225 -1.593 -0.115 c -0.468 -0.341 -0.698 -0.906 -0.6 -1.477 l 3.097 -18.057 c 0.082 -0.475 -0.075 -0.96 -0.421 -1.298 l -13.12 -12.789 c -0.415 -0.404 -0.561 -0.998 -0.382 -1.548 c 0.179 -0.551 0.645 -0.945 1.218 -1.028 l 18.133 -2.635 c 0.112 -0.016 0.219 -0.048 0.322 -0.088 c 0.006 -0.003 0.014 -0.003 0.02 -0.006 c 0.101 -0.041 0.195 -0.096 0.283 -0.157 c 0.008 -0.005 0.017 -0.008 0.024 -0.013 c 0.19 -0.138 0.347 -0.321 0.455 -0.538 l 3.188 -6.46 c 0 0 0 0 0 -0.001 l 4.92 -9.97 c 0.257 -0.519 0.775 -0.842 1.354 -0.842 s 1.097 0.322 1.354 0.841 l 8.109 16.433 c 0.214 0.432 0.627 0.73 1.104 0.8 l 18.131 2.635 c 0.573 0.083 1.04 0.477 1.219 1.028 c 0.045 0.138 0.069 0.278 0.075 0.417 c 0.008 0.209 -0.042 0.411 -0.119 0.603 c -0.077 0.192 -0.181 0.375 -0.337 0.527 L 61.416 53.663 z M 87.771 30.951 C 87.771 30.951 87.771 30.951 87.771 30.951 l -9.156 8.927 c -0.316 0.306 -0.46 0.747 -0.384 1.175 l 2.162 12.607 c 0.049 0.289 -0.063 0.564 -0.299 0.736 c -0.236 0.172 -0.534 0.192 -0.792 0.058 l -10.284 -5.407 l 4.097 -3.994 l 2.816 -2.745 c 0.723 -0.705 1.095 -1.657 1.06 -2.629 c -0.012 -0.324 -0.068 -0.65 -0.172 -0.97 c -0.417 -1.279 -1.502 -2.195 -2.833 -2.389 l -17.854 -2.594 l -2.454 -4.974 l 6.354 -0.923 c 0.43 -0.063 0.801 -0.333 0.995 -0.725 l 5.661 -11.471 c 0.26 -0.524 1.09 -0.523 1.35 0 l 5.661 11.474 c 0.193 0.388 0.564 0.658 0.997 0.722 l 12.659 1.839 c 0.289 0.042 0.516 0.233 0.606 0.511 C 88.051 30.458 87.981 30.747 87.771 30.951 z" style="stroke: none; stroke-width: 1; stroke-dasharray: none; stroke-linecap: butt; stroke-linejoin: miter; stroke-miterlimit: 10; fill: rgb(0,0,0); fill-rule: nonzero; opacity: 1;" transform=" matrix(1 0 0 1 0 0) " stroke-linecap="round"/>
</g>
</svg>