<svg xmlns="http://www.w3.org/2000/svg" xmlns:xlink="http://www.w3.org/1999/xlink" version="1.1" width="256" height="256" viewBox="0 0 256 256" xml:space="preserve">
<g style="stroke: none; stroke-width: 0; stroke-dasharray: none; stroke-linecap: butt; stroke-linejoin: miter; stroke-miterlimit: 10; fill: none; fill-rule: nonzero; opacity: 1;" transform="translate(1.4065934065934016 1.4065934065934016) scale(2.81 2.81)">
	<path d="M 41.006 83.095 C 18.395 83.095 0 64.7 0 42.089 S 18.395 1.083 41.006 1.083 s 41.006 18.395 41.006 41.006 c 0 6.922 -1.757 13.764 -5.081 19.788 c -0.267 0.482 -0.874 0.657 -1.359 0.393 c -0.483 -0.268 -0.659 -0.876 -0.393 -1.359 c 3.162 -5.728 4.833 -12.236 4.833 -18.821 c 0 -21.508 -17.498 -39.006 -39.006 -39.006 C 19.498 3.083 2 20.581 2 42.089 c 0 21.509 17.498 39.006 39.006 39.006 c 7.632 0 15.024 -2.204 21.376 -6.373 c 0.461 -0.304 1.081 -0.175 1.385 0.287 c 0.303 0.462 0.175 1.082 -0.287 1.385 C 56.801 80.778 49.03 83.095 41.006 83.095 z" style="stroke: #000000; stroke-width: 3; stroke-dasharray: none; stroke-linecap: round; stroke-linejoin: round; stroke-miterlimit: 10; fill: rgb(0,0,0); fill-rule: nonzero; opacity: 1;" transform=" matrix(1 0 0 1 0 0) " stroke-linecap="round"/>
	<path d="M 41.006 83.095 c -9.75 0 -17.387 -18.012 -17.387 -41.006 S 31.256 1.083 41.006 1.083 c 6.78 0 12.787 8.841 15.674 23.074 c 0.109 0.541 -0.24 1.069 -0.781 1.179 c -0.547 0.111 -1.069 -0.24 -1.18 -0.781 C 52.074 11.511 46.691 3.083 41.006 3.083 c -8.341 0 -15.387 17.862 -15.387 39.006 c 0 21.143 7.047 39.006 15.387 39.006 c 3.326 0 5.972 -2.86 7.607 -5.26 c 0.311 -0.456 0.934 -0.577 1.389 -0.264 c 0.457 0.311 0.575 0.933 0.264 1.389 C 47.533 80.974 44.331 83.095 41.006 83.095 z" style="stroke: #000000; stroke-width: 3; stroke-dasharray: none; stroke-linecap: round; stroke-linejoin: round; stroke-miterlimit: 10; fill: rgb(0,0,0); fill-rule: nonzero; opacity: 1;" transform=" matrix(1 0 0 1 0 0) " stroke-linecap="round"/>
	<path d="M 81.012 43.089 h -5.65 c -0.553 0 -1 -0.448 -1 -1 s 0.447 -1 1 -1 h 5.65 c 0.553 0 1 0.448 1 1 S 81.565 43.089 81.012 43.089 z" style="stroke: #000000; stroke-width: 3; stroke-dasharray: none; stroke-linecap: round; stroke-linejoin: round; stroke-miterlimit: 10; fill: rgb(0,0,0); fill-rule: nonzero; opacity: 1;" transform=" matrix(1 0 0 1 0 0) " stroke-linecap="round"/>
	<path d="M 26.442 43.089 H 1 c -0.552 0 -1 -0.448 -1 -1 s 0.448 -1 1 -1 h 25.442 c 0.552 0 1 0.448 1 1 S 26.995 43.089 26.442 43.089 z" style="stroke: #000000; stroke-width: 3; stroke-dasharray: none; stroke-linecap: round; stroke-linejoin: round; stroke-miterlimit: 10; fill: rgb(0,0,0); fill-rule: nonzero; opacity: 1;" transform=" matrix(1 0 0 1 0 0) " stroke-linecap="round"/>
	<path d="M 68.686 72.289 l -5.391 -5.391 c -0.391 -0.391 -0.391 -1.023 0 -1.414 c 0.391 -0.391 1.023 -0.391 1.414 0 l 3.977 3.977 l 1.858 -1.858 l -3.977 -3.977 c -0.391 -0.391 -0.391 -1.023 0 -1.414 s 1.023 -0.391 1.414 0 l 5.391 5.391 L 68.686 72.289 z" style="stroke: #000000; stroke-width: 3; stroke-dasharray: none; stroke-linecap: round; stroke-linejoin: round; stroke-miterlimit: 10; fill: rgb(0,0,0); fill-rule: nonzero; opacity: 1;" transform=" matrix(1 0 0 1 0 0) " stroke-linecap="round"/>
	<path d="M 84.6 88.917 c -1.384 0 -2.767 -0.526 -3.819 -1.579 L 65.795 72.351 l 7.64 -7.639 l 14.986 14.986 c 2.106 2.106 2.106 5.533 0 7.64 l 0 0 C 87.367 88.391 85.983 88.917 84.6 88.917 z M 68.623 72.351 l 13.572 13.573 c 1.326 1.326 3.484 1.326 4.812 0 c 1.326 -1.327 1.326 -3.485 0 -4.812 L 73.435 67.54 L 68.623 72.351 z M 87.714 86.631 h 0.01 H 87.714 z" style="stroke: #000000; stroke-width: 3; stroke-dasharray: none; stroke-linecap: round; stroke-linejoin: round; stroke-miterlimit: 10; fill: rgb(0,0,0); fill-rule: nonzero; opacity: 1;" transform=" matrix(1 0 0 1 0 0) " stroke-linecap="round"/>
	<path d="M 51.051 71.738 c -5.578 0 -11.155 -2.122 -15.401 -6.368 c -8.492 -8.492 -8.492 -22.31 0 -30.802 c 8.491 -8.492 22.309 -8.493 30.802 0 l 0 0 c 8.491 8.492 8.491 22.309 0 30.802 C 62.206 69.615 56.629 71.738 51.051 71.738 z M 51.051 30.198 c -5.066 0 -10.131 1.928 -13.987 5.784 c -7.712 7.712 -7.712 20.261 0 27.974 c 7.711 7.711 20.259 7.712 27.974 0 c 7.711 -7.712 7.711 -20.261 0 -27.974 C 61.182 32.126 56.116 30.198 51.051 30.198 z" style="stroke: #000000; stroke-width: 3; stroke-dasharray: none; stroke-linecap: round; stroke-linejoin: round; stroke-miterlimit: 10; fill: rgb(0,0,0); fill-rule: nonzero; opacity: 1;" transform=" matrix(1 0 0 1 0 0) " stroke-linecap="round"/>
	<path d="M 41.661 60.359 c -0.256 0 -0.512 -0.098 -0.707 -0.293 c -2.697 -2.697 -4.183 -6.283 -4.183 -10.098 c 0 -3.815 1.485 -7.401 4.183 -10.098 c 0.391 -0.391 1.023 -0.391 1.414 0 c 0.391 0.391 0.391 1.023 0 1.414 c -2.319 2.319 -3.597 5.403 -3.597 8.684 s 1.277 6.364 3.597 8.684 c 0.391 0.391 0.391 1.023 0 1.414 C 42.172 60.262 41.916 60.359 41.661 60.359 z" style="stroke: #000000; stroke-width: 3; stroke-dasharray: none; stroke-linecap: round; stroke-linejoin: round; stroke-miterlimit: 10; fill: rgb(0,0,0); fill-rule: nonzero; opacity: 1;" transform=" matrix(1 0 0 1 0 0) " stroke-linecap="round"/>
</g>
</svg>