<svg xmlns="http://www.w3.org/2000/svg" xmlns:xlink="http://www.w3.org/1999/xlink" version="1.1" width="256" height="256" viewBox="0 0 256 256" xml:space="preserve">
<g style="stroke: none; stroke-width: 0; stroke-dasharray: none; stroke-linecap: butt; stroke-linejoin: miter; stroke-miterlimit: 10; fill: none; fill-rule: nonzero; opacity: 1;" transform="translate(1.4065934065934016 1.4065934065934016) scale(2.81 2.81)">
	<path d="M 45 90 C 20.187 90 0 69.813 0 45 C 0 20.187 20.187 0 45 0 c 24.813 0 45 20.187 45 45 C 90 69.813 69.813 90 45 90 z M 45 2 C 21.29 2 2 21.29 2 45 c 0 23.71 19.29 43 43 43 c 23.71 0 43 -19.29 43 -43 C 88 21.29 68.71 2 45 2 z" style="stroke: none; stroke-width: 1; stroke-dasharray: none; stroke-linecap: butt; stroke-linejoin: miter; stroke-miterlimit: 10; fill: rgb(0,0,0); fill-rule: nonzero; opacity: 1;" transform=" matrix(1 0 0 1 0 0) " stroke-linecap="round"/>
	<path d="M 45 45.79 c -7.498 0 -13.597 -6.1 -13.597 -13.597 S 37.502 18.595 45 18.595 c 7.498 0 13.598 6.1 13.598 13.598 S 52.498 45.79 45 45.79 z M 45 20.595 c -6.395 0 -11.597 5.203 -11.597 11.598 c 0 6.395 5.203 11.597 11.597 11.597 s 11.598 -5.203 11.598 -11.597 C 56.598 25.798 51.395 20.595 45 20.595 z" style="stroke: none; stroke-width: 1; stroke-dasharray: none; stroke-linecap: butt; stroke-linejoin: miter; stroke-miterlimit: 10; fill: rgb(0,0,0); fill-rule: nonzero; opacity: 1;" transform=" matrix(1 0 0 1 0 0) " stroke-linecap="round"/>
	<path d="M 64.479 71.404 c -0.415 0 -0.803 -0.261 -0.945 -0.675 l -4.018 -11.691 c -1.378 -4.01 -5.151 -6.703 -9.391 -6.703 h -10.25 c -4.239 0 -8.013 2.693 -9.39 6.703 l -4.018 11.691 c -0.18 0.521 -0.75 0.799 -1.271 0.62 c -0.522 -0.179 -0.8 -0.748 -0.621 -1.271 l 4.018 -11.691 c 1.655 -4.816 6.189 -8.053 11.282 -8.053 h 10.25 c 5.093 0 9.627 3.236 11.281 8.053 l 4.018 11.691 c 0.18 0.522 -0.098 1.092 -0.62 1.271 C 64.696 71.387 64.586 71.404 64.479 71.404 z" style="stroke: none; stroke-width: 1; stroke-dasharray: none; stroke-linecap: butt; stroke-linejoin: miter; stroke-miterlimit: 10; fill: rgb(0,0,0); fill-rule: nonzero; opacity: 1;" transform=" matrix(1 0 0 1 0 0) " stroke-linecap="round"/>
</g>
</svg>