<svg xmlns="http://www.w3.org/2000/svg" xmlns:xlink="http://www.w3.org/1999/xlink" version="1.1" width="256" height="256" viewBox="0 0 256 256" xml:space="preserve">
<g style="stroke: none; stroke-width: 0; stroke-dasharray: none; stroke-linecap: butt; stroke-linejoin: miter; stroke-miterlimit: 10; fill: none; fill-rule: nonzero; opacity: 1;" transform="translate(1.4065934065934016 1.4065934065934016) scale(2.81 2.81)">
	<path d="M 30.936 90 c -2.303 0 -4.468 -0.896 -6.096 -2.525 L 2.525 65.16 C 0.896 63.532 0 61.367 0 59.064 s 0.896 -4.467 2.525 -6.096 l 45.35 -45.35 c 1.961 -1.961 4.766 -2.858 7.503 -2.401 L 74.5 8.421 c 3.15 0.528 5.737 2.736 6.751 5.763 c 0.143 0.429 0.253 0.871 0.328 1.314 l 3.203 19.124 v 0 c 0.459 2.736 -0.439 5.541 -2.401 7.504 l -45.35 45.349 C 35.403 89.104 33.238 90 30.936 90 z M 53.962 7.1 c -1.736 0 -3.427 0.687 -4.673 1.933 l -45.35 45.35 C 2.688 55.634 2 57.296 2 59.064 s 0.688 3.432 1.939 4.682 l 22.315 22.314 C 27.504 87.312 29.167 88 30.936 88 s 3.431 -0.688 4.682 -1.939 l 45.35 -45.349 c 1.506 -1.506 2.195 -3.659 1.843 -5.759 v 0 L 79.606 15.83 c -0.058 -0.341 -0.143 -0.682 -0.253 -1.012 c -0.777 -2.323 -2.764 -4.019 -5.184 -4.424 L 55.048 7.19 C 54.687 7.13 54.323 7.1 53.962 7.1 z" style="stroke: none; stroke-width: 1; stroke-dasharray: none; stroke-linecap: butt; stroke-linejoin: miter; stroke-miterlimit: 10; fill: rgb(0,0,0); fill-rule: nonzero; opacity: 1;" transform=" matrix(1 0 0 1 0 0) " stroke-linecap="round"/>
	<path d="M 28.65 75.174 c -0.256 0 -0.512 -0.098 -0.707 -0.293 L 15.12 62.057 c -0.188 -0.188 -0.293 -0.441 -0.293 -0.707 s 0.105 -0.52 0.293 -0.707 l 5.799 -5.799 c 0.391 -0.391 1.023 -0.391 1.414 0 s 0.391 1.023 0 1.414 l -5.092 5.092 l 12.116 12.117 c 0.391 0.391 0.391 1.023 0 1.414 C 29.162 75.076 28.906 75.174 28.65 75.174 z" style="stroke: none; stroke-width: 1; stroke-dasharray: none; stroke-linecap: butt; stroke-linejoin: miter; stroke-miterlimit: 10; fill: rgb(0,0,0); fill-rule: nonzero; opacity: 1;" transform=" matrix(1 0 0 1 0 0) " stroke-linecap="round"/>
	<path d="M 22.627 68.373 c -0.256 0 -0.512 -0.098 -0.707 -0.293 c -0.391 -0.391 -0.391 -1.023 0 -1.414 l 2.511 -2.511 c 0.391 -0.391 1.023 -0.391 1.414 0 s 0.391 1.023 0 1.414 l -2.511 2.511 C 23.139 68.275 22.883 68.373 22.627 68.373 z" style="stroke: none; stroke-width: 1; stroke-dasharray: none; stroke-linecap: butt; stroke-linejoin: miter; stroke-miterlimit: 10; fill: rgb(0,0,0); fill-rule: nonzero; opacity: 1;" transform=" matrix(1 0 0 1 0 0) " stroke-linecap="round"/>
	<path d="M 39.629 64.194 c -0.256 0 -0.512 -0.098 -0.707 -0.293 L 26.099 51.078 c -0.391 -0.391 -0.391 -1.023 0 -1.414 l 4.487 -4.487 c 1.114 -1.114 3 -1.04 4.205 0.164 l 3.457 3.458 c 1.204 1.205 1.278 3.091 0.165 4.205 l -3.78 3.779 l 5.705 5.705 c 0.391 0.391 0.391 1.023 0 1.414 C 40.141 64.097 39.885 64.194 39.629 64.194 z M 28.22 50.371 l 4.998 4.997 l 3.78 -3.779 c 0.328 -0.328 0.253 -0.959 -0.165 -1.377 l -3.457 -3.457 c -0.417 -0.418 -1.047 -0.49 -1.376 -0.164 L 28.22 50.371 z" style="stroke: none; stroke-width: 1; stroke-dasharray: none; stroke-linecap: butt; stroke-linejoin: miter; stroke-miterlimit: 10; fill: rgb(0,0,0); fill-rule: nonzero; opacity: 1;" transform=" matrix(1 0 0 1 0 0) " stroke-linecap="round"/>
	<path d="M 45.429 58.395 c -0.118 0 -0.237 -0.021 -0.353 -0.064 l -9.312 -3.512 c -0.517 -0.194 -0.777 -0.771 -0.583 -1.288 c 0.195 -0.517 0.773 -0.777 1.289 -0.583 l 9.312 3.512 c 0.517 0.194 0.777 0.771 0.583 1.288 C 46.214 58.147 45.833 58.395 45.429 58.395 z" style="stroke: none; stroke-width: 1; stroke-dasharray: none; stroke-linecap: butt; stroke-linejoin: miter; stroke-miterlimit: 10; fill: rgb(0,0,0); fill-rule: nonzero; opacity: 1;" transform=" matrix(1 0 0 1 0 0) " stroke-linecap="round"/>
	<path d="M 51.111 52.713 c -0.266 0 -0.52 -0.105 -0.707 -0.293 L 37.581 39.596 c -0.188 -0.188 -0.293 -0.442 -0.293 -0.707 s 0.105 -0.52 0.293 -0.707 l 5.8 -5.799 c 0.391 -0.391 1.023 -0.391 1.414 0 s 0.391 1.023 0 1.414 l -5.093 5.092 l 11.41 11.41 l 5.093 -5.093 c 0.391 -0.391 1.023 -0.391 1.414 0 s 0.391 1.024 0 1.415 l -5.8 5.8 C 51.631 52.607 51.377 52.713 51.111 52.713 z" style="stroke: none; stroke-width: 1; stroke-dasharray: none; stroke-linecap: butt; stroke-linejoin: miter; stroke-miterlimit: 10; fill: rgb(0,0,0); fill-rule: nonzero; opacity: 1;" transform=" matrix(1 0 0 1 0 0) " stroke-linecap="round"/>
	<path d="M 45.088 45.912 c -0.256 0 -0.512 -0.098 -0.707 -0.293 c -0.391 -0.391 -0.391 -1.024 0 -1.414 l 2.512 -2.511 c 0.391 -0.391 1.023 -0.391 1.414 0 s 0.391 1.024 0 1.414 l -2.512 2.511 C 45.6 45.814 45.344 45.912 45.088 45.912 z" style="stroke: none; stroke-width: 1; stroke-dasharray: none; stroke-linecap: butt; stroke-linejoin: miter; stroke-miterlimit: 10; fill: rgb(0,0,0); fill-rule: nonzero; opacity: 1;" transform=" matrix(1 0 0 1 0 0) " stroke-linecap="round"/>
	<path d="M 62.593 41.23 c -0.256 0 -0.512 -0.098 -0.707 -0.293 L 49.063 28.114 c -0.391 -0.391 -0.391 -1.023 0 -1.414 l 5.8 -5.8 c 0.391 -0.391 1.023 -0.391 1.414 0 s 0.391 1.023 0 1.414 l -5.093 5.093 l 11.409 11.409 l 5.093 -5.092 c 0.391 -0.391 1.023 -0.391 1.414 0 s 0.391 1.023 0 1.414 l -5.8 5.799 C 63.104 41.133 62.849 41.23 62.593 41.23 z" style="stroke: none; stroke-width: 1; stroke-dasharray: none; stroke-linecap: butt; stroke-linejoin: miter; stroke-miterlimit: 10; fill: rgb(0,0,0); fill-rule: nonzero; opacity: 1;" transform=" matrix(1 0 0 1 0 0) " stroke-linecap="round"/>
	<path d="M 56.569 34.43 c -0.256 0 -0.512 -0.098 -0.707 -0.293 c -0.391 -0.391 -0.391 -1.024 0 -1.414 l 2.512 -2.511 c 0.391 -0.391 1.023 -0.391 1.414 0 s 0.391 1.024 0 1.414 l -2.512 2.511 C 57.081 34.333 56.825 34.43 56.569 34.43 z" style="stroke: none; stroke-width: 1; stroke-dasharray: none; stroke-linecap: butt; stroke-linejoin: miter; stroke-miterlimit: 10; fill: rgb(0,0,0); fill-rule: nonzero; opacity: 1;" transform=" matrix(1 0 0 1 0 0) " stroke-linecap="round"/>
	<path d="M 77.02 21.076 c -2.074 0 -4.147 -0.789 -5.727 -2.368 c -0.391 -0.391 -0.391 -1.023 0 -1.414 s 1.023 -0.391 1.414 0 c 1.146 1.146 2.678 1.778 4.313 1.778 s 3.166 -0.631 4.313 -1.778 l 4.891 -4.891 C 87.369 11.256 88 9.725 88 8.09 c 0 -1.634 -0.631 -3.166 -1.777 -4.312 C 85.076 2.631 83.545 2 81.91 2 s -3.166 0.631 -4.313 1.777 l -4.891 4.891 c -0.245 0.245 -0.471 0.513 -0.67 0.794 c -0.317 0.451 -0.941 0.558 -1.394 0.239 c -0.451 -0.318 -0.559 -0.942 -0.239 -1.394 c 0.265 -0.375 0.563 -0.729 0.889 -1.054 l 4.891 -4.891 C 77.708 0.839 79.741 0 81.91 0 s 4.202 0.839 5.727 2.363 S 90 5.921 90 8.09 s -0.839 4.203 -2.363 5.727 l -4.891 4.891 C 81.167 20.287 79.094 21.076 77.02 21.076 z" style="stroke: none; stroke-width: 1; stroke-dasharray: none; stroke-linecap: butt; stroke-linejoin: miter; stroke-miterlimit: 10; fill: rgb(0,0,0); fill-rule: nonzero; opacity: 1;" transform=" matrix(1 0 0 1 0 0) " stroke-linecap="round"/>
</g>
</svg>